<svg width="1920" height="1080" viewBox="0 0 1920 1080" xmlns="http://www.w3.org/2000/svg">
  <defs>
    <!-- Horizon base gradient: Dark teal to purple -->
    <linearGradient id="horizonBase" x1="0%" y1="0%" x2="100%" y2="100%">
      <stop offset="0%" stop-color="#1c1e26"/>
      <stop offset="30%" stop-color="#232530"/>
      <stop offset="70%" stop-color="#2e303e"/>
      <stop offset="100%" stop-color="#3c3e4e"/>
    </linearGradient>
    
    <!-- Horizon accent gradient: Purple to orange -->
    <linearGradient id="horizonAccent" x1="0%" y1="0%" x2="100%" y2="100%">
      <stop offset="0%" stop-color="#b877db" stop-opacity="0.8"/>
      <stop offset="50%" stop-color="#c74ded" stop-opacity="0.6"/>
      <stop offset="100%" stop-color="#fab795" stop-opacity="0.4"/>
    </linearGradient>
    
    <!-- Subtle geometric pattern -->
    <pattern id="geometricGrid" x="0" y="0" width="120" height="120" patternUnits="userSpaceOnUse">
      <rect width="120" height="120" fill="transparent"/>
      <rect x="0" y="0" width="1" height="120" fill="#b877db" opacity="0.03"/>
      <rect x="0" y="0" width="120" height="1" fill="#b877db" opacity="0.03"/>
      <circle cx="60" cy="60" r="0.5" fill="#b877db" opacity="0.08"/>
    </pattern>
    
    <!-- Elegant dot pattern -->
    <pattern id="elegantDots" x="0" y="0" width="60" height="60" patternUnits="userSpaceOnUse">
      <rect width="60" height="60" fill="transparent"/>
      <circle cx="30" cy="30" r="0.8" fill="#c74ded" opacity="0.06"/>
    </pattern>
    
    <!-- Subtle glow -->
    <filter id="subtleGlow" x="-50%" y="-50%" width="200%" height="200%">
      <feGaussianBlur stdDeviation="2" result="coloredBlur"/>
      <feMerge>
        <feMergeNode in="coloredBlur"/>
        <feMergeNode in="SourceGraphic"/>
      </feMerge>
    </filter>
  </defs>
  
  <!-- Base gradient -->
  <rect width="1920" height="1080" fill="url(#horizonBase)"/>
  
  <!-- Subtle geometric grid -->
  <rect width="1920" height="1080" fill="url(#geometricGrid)"/>
  
  <!-- Elegant dot overlay -->
  <rect width="1920" height="1080" fill="url(#elegantDots)"/>
  
  <!-- Clean geometric shapes with Horizon colors -->
  <g opacity="0.08" filter="url(#subtleGlow)">
    <!-- Large geometric elements -->
    <rect x="1400" y="100" width="400" height="2" fill="url(#horizonAccent)"/>
    <rect x="1400" y="100" width="2" height="400" fill="url(#horizonAccent)"/>
    
    <circle cx="300" cy="800" r="150" stroke="url(#horizonAccent)" stroke-width="1" fill="none"/>
    <circle cx="300" cy="800" r="100" stroke="url(#horizonAccent)" stroke-width="0.5" fill="none"/>
    
    <!-- Minimal triangular elements -->
    <polygon points="1600,300 1700,450 1500,450" stroke="url(#horizonAccent)" stroke-width="1" fill="none"/>
    <polygon points="200,200 280,300 120,300" stroke="url(#horizonAccent)" stroke-width="0.8" fill="none"/>
    
    <!-- Subtle connecting lines -->
    <line x1="300" y1="650" x2="1600" y2="300" stroke="url(#horizonAccent)" stroke-width="0.5"/>
    <line x1="150" y1="250" x2="1450" y2="150" stroke="url(#horizonAccent)" stroke-width="0.3"/>
  </g>
  
  <!-- Ultra-minimal accent elements -->
  <g opacity="0.12">
    <rect x="100" y="100" width="8" height="8" fill="#b877db"/>
    <rect x="1800" y="900" width="6" height="6" fill="#fab795"/>
    <circle cx="1600" cy="200" r="3" fill="#c74ded"/>
    <circle cx="400" cy="950" r="2" fill="#fab795"/>
  </g>
  
  <!-- Subtle corner accents -->
  <g opacity="0.04">
    <path d="M0,0 L200,0 L200,2 L2,2 L2,200 L0,200 Z" fill="url(#horizonAccent)"/>
    <path d="M1920,0 L1720,0 L1720,2 L1918,2 L1918,200 L1920,200 Z" fill="url(#horizonAccent)"/>
    <path d="M0,1080 L200,1080 L200,1078 L2,1078 L2,880 L0,880 Z" fill="url(#horizonAccent)"/>
    <path d="M1920,1080 L1720,1080 L1720,1078 L1918,1078 L1918,880 L1920,880 Z" fill="url(#horizonAccent)"/>
  </g>
  
  <!-- Ultra-subtle texture overlay -->
  <rect width="1920" height="1080" fill="url(#horizonAccent)" opacity="0.01"/>
</svg>