<svg width="1920" height="1080" viewBox="0 0 1920 1080" xmlns="http://www.w3.org/2000/svg">
  <defs>
    <radialGradient id="monokaiGradient" cx="50%" cy="50%" r="80%">
      <stop offset="0%" stop-color="#3e3d32"/>
      <stop offset="40%" stop-color="#272822"/>
      <stop offset="70%" stop-color="#1e1f1c"/>
      <stop offset="100%" stop-color="#161613"/>
    </radialGradient>
    <!-- Subtle texture overlay -->
    <filter id="noise">
      <feTurbulence baseFrequency="0.9" numOctaves="3" result="noise"/>
      <feColorMatrix in="noise" type="saturate" values="0"/>
      <feComponentTransfer>
        <feFuncA type="discrete" tableValues="0.02 0.04 0.06"/>
      </feComponentTransfer>
      <feComposite in2="SourceGraphic" operator="multiply"/>
    </filter>
  </defs>
  <rect width="1920" height="1080" fill="url(#monokaiGradient)"/>
  <!-- Grid pattern -->
  <defs>
    <pattern id="monokaiGrid" width="100" height="100" patternUnits="userSpaceOnUse">
      <path d="M 100 0 L 0 0 0 100" fill="none" stroke="#a6e22e" stroke-width="0.4" opacity="0.2"/>
      <path d="M 50 0 L 50 100 M 0 50 L 100 50" fill="none" stroke="#a6e22e" stroke-width="0.2" opacity="0.12"/>
    </pattern>
  </defs>
  <rect width="1920" height="1080" fill="url(#monokaiGrid)"/>
  <!-- Accent dots and elements -->
  <g opacity="0.8">
    <circle cx="1400" cy="250" r="3" fill="#f92672"/>
    <circle cx="500" cy="750" r="3" fill="#a6e22e"/>
    <circle cx="1200" cy="650" r="3" fill="#f92672"/>
    <circle cx="300" cy="400" r="2" fill="#a6e22e"/>
    <circle cx="1600" cy="800" r="2" fill="#f92672"/>
    <circle cx="800" cy="300" r="2" fill="#a6e22e"/>
  </g>
  <!-- Corner accents -->
  <g opacity="0.5">
    <rect x="0" y="0" width="120" height="2" fill="#a6e22e"/>
    <rect x="0" y="0" width="2" height="120" fill="#a6e22e"/>
    <rect x="1798" y="1078" width="120" height="2" fill="#f92672"/>
    <rect x="1918" y="958" width="2" height="120" fill="#f92672"/>
  </g>
  <!-- Geometric accents -->
  <g opacity="0.35">
    <rect x="150" y="150" width="8" height="8" fill="#a6e22e" transform="rotate(45 154 154)"/>
    <rect x="1750" y="920" width="8" height="8" fill="#f92672" transform="rotate(45 1754 924)"/>
  </g>
  <!-- Texture overlay -->
  <rect width="1920" height="1080" fill="url(#monokaiGradient)" filter="url(#noise)" opacity="0.3"/>
</svg>