<svg width="1920" height="1080" viewBox="0 0 1920 1080" xmlns="http://www.w3.org/2000/svg">
  <defs>
    <radialGradient id="palenightGradient" cx="50%" cy="50%" r="80%">
      <stop offset="0%" stop-color="#444267"/>
      <stop offset="40%" stop-color="#292d3e"/>
      <stop offset="70%" stop-color="#1f2233"/>
      <stop offset="100%" stop-color="#191a21"/>
    </radialGradient>
    <!-- Subtle texture overlay -->
    <filter id="noise">
      <feTurbulence baseFrequency="0.9" numOctaves="3" result="noise"/>
      <feColorMatrix in="noise" type="saturate" values="0"/>
      <feComponentTransfer>
        <feFuncA type="discrete" tableValues="0.02 0.04 0.06"/>
      </feComponentTransfer>
      <feComposite in2="SourceGraphic" operator="multiply"/>
    </filter>
  </defs>
  <rect width="1920" height="1080" fill="url(#palenightGradient)"/>
  <!-- Grid pattern -->
  <defs>
    <pattern id="palenightGrid" width="100" height="100" patternUnits="userSpaceOnUse">
      <path d="M 100 0 L 0 0 0 100" fill="none" stroke="#c792ea" stroke-width="0.4" opacity="0.22"/>
      <path d="M 50 0 L 50 100 M 0 50 L 100 50" fill="none" stroke="#c792ea" stroke-width="0.2" opacity="0.12"/>
    </pattern>
  </defs>
  <rect width="1920" height="1080" fill="url(#palenightGrid)"/>
  <!-- Accent dots and elements -->
  <g opacity="0.8">
    <circle cx="1400" cy="250" r="3" fill="#ffcb6b"/>
    <circle cx="500" cy="750" r="3" fill="#c792ea"/>
    <circle cx="1200" cy="650" r="3" fill="#ffcb6b"/>
    <circle cx="300" cy="400" r="2" fill="#c792ea"/>
    <circle cx="1600" cy="800" r="2" fill="#ffcb6b"/>
    <circle cx="800" cy="300" r="2" fill="#c792ea"/>
  </g>
  <!-- Corner accents -->
  <g opacity="0.6">
    <rect x="0" y="0" width="120" height="2" fill="#c792ea"/>
    <rect x="0" y="0" width="2" height="120" fill="#c792ea"/>
    <rect x="1798" y="1078" width="120" height="2" fill="#ffcb6b"/>
    <rect x="1918" y="958" width="2" height="120" fill="#ffcb6b"/>
  </g>
  <!-- Mystic elements inspired by palenight theme -->
  <g opacity="0.4">
    <polygon points="180,300 185,290 190,300 185,310" fill="#c792ea"/>
    <polygon points="1740,780 1745,770 1750,780 1745,790" fill="#ffcb6b"/>
    <circle cx="600" cy="400" r="1.5" fill="#c792ea"/>
    <circle cx="1300" cy="480" r="1.5" fill="#ffcb6b"/>
  </g>
  <!-- Texture overlay -->
  <rect width="1920" height="1080" fill="url(#palenightGradient)" filter="url(#noise)" opacity="0.3"/>
</svg>