<svg width="1920" height="1080" viewBox="0 0 1920 1080" xmlns="http://www.w3.org/2000/svg">
  <defs>
    <radialGradient id="onedarkGradient" cx="50%" cy="50%" r="80%">
      <stop offset="0%" stop-color="#3c4043"/>
      <stop offset="40%" stop-color="#282c34"/>
      <stop offset="70%" stop-color="#21252b"/>
      <stop offset="100%" stop-color="#181a1f"/>
    </radialGradient>
    <!-- Subtle texture overlay -->
    <filter id="noise">
      <feTurbulence baseFrequency="0.9" numOctaves="3" result="noise"/>
      <feColorMatrix in="noise" type="saturate" values="0"/>
      <feComponentTransfer>
        <feFuncA type="discrete" tableValues="0.02 0.04 0.06"/>
      </feComponentTransfer>
      <feComposite in2="SourceGraphic" operator="multiply"/>
    </filter>
  </defs>
  <rect width="1920" height="1080" fill="url(#onedarkGradient)"/>
  <!-- Grid pattern -->
  <defs>
    <pattern id="onedarkGrid" width="100" height="100" patternUnits="userSpaceOnUse">
      <path d="M 100 0 L 0 0 0 100" fill="none" stroke="#c678dd" stroke-width="0.4" opacity="0.18"/>
      <path d="M 50 0 L 50 100 M 0 50 L 100 50" fill="none" stroke="#c678dd" stroke-width="0.2" opacity="0.1"/>
    </pattern>
  </defs>
  <rect width="1920" height="1080" fill="url(#onedarkGrid)"/>
  <!-- Accent dots and elements -->
  <g opacity="0.8">
    <circle cx="1400" cy="250" r="3" fill="#56b6c2"/>
    <circle cx="500" cy="750" r="3" fill="#c678dd"/>
    <circle cx="1200" cy="650" r="3" fill="#56b6c2"/>
    <circle cx="300" cy="400" r="2" fill="#c678dd"/>
    <circle cx="1600" cy="800" r="2" fill="#56b6c2"/>
  </g>
  <!-- Corner accents -->
  <g opacity="0.5">
    <rect x="0" y="0" width="120" height="2" fill="#c678dd"/>
    <rect x="0" y="0" width="2" height="120" fill="#c678dd"/>
    <rect x="1798" y="1078" width="120" height="2" fill="#56b6c2"/>
    <rect x="1918" y="958" width="2" height="120" fill="#56b6c2"/>
  </g>
  <!-- Geometric accents -->
  <g opacity="0.3">
    <polygon points="100,200 110,180 120,200 110,220" fill="#c678dd"/>
    <polygon points="1800,880 1810,860 1820,880 1810,900" fill="#56b6c2"/>
  </g>
  <!-- Texture overlay -->
  <rect width="1920" height="1080" fill="url(#onedarkGradient)" filter="url(#noise)" opacity="0.3"/>
</svg>